<svg xmlns="http://www.w3.org/2000/svg" viewBox="0 0 3840 2160" width="3840" height="2160">

<defs>
  <style><![CDATA[
    :root {
      --bg:#07131A; --panel:#0B1820; --text:#C8F0FF; --line:#6FD0FF; --accent:#FFC766; --scan:0.24;
    }
    .bg{fill:var(--bg);}
    .frame{fill:none;stroke:var(--line);stroke-width:3;}
    .dashframe{fill:none;stroke:var(--line);stroke-width:3;stroke-dasharray:18 18;opacity:.5;}
    .panel{fill:var(--panel);fill-opacity:.74;stroke:var(--line);stroke-width:3;}
    .panel-fg{fill:none;stroke:var(--line);stroke-width:3;}
    .tab{fill:var(--panel);fill-opacity:.64;stroke:var(--line);stroke-width:3;}
    .hdr{fill:var(--panel);fill-opacity:.9;stroke:var(--line);stroke-width:3;}
    .label{fill:var(--text);font-family:ui-monospace,Menlo,Consolas,"Liberation Mono",monospace;font-size:38px;letter-spacing:1.2px;}
    .small{font-size:28px;opacity:.95;}
    .tiny{font-size:24px;opacity:.9;}
    .prompt{fill:var(--text);font-family:ui-monospace,Menlo,Consolas;font-size:64px;letter-spacing:2px;}
    .grid line{stroke:var(--line);opacity:.28;}
    .ghost{fill:none;stroke:var(--line);stroke-opacity:.65;stroke-width:2;}
    .accent{fill:none;stroke:var(--accent);stroke-width:3;}
    .tick{stroke:var(--line);}
    .scanfill{fill:url(#scanlines);fill-opacity:var(--scan);}
    .safe{fill:none;stroke:var(--accent);stroke-opacity:.25;stroke-dasharray:12 12;}
    .mono{font-family:ui-monospace,Menlo,Consolas;}

    /* Logo spin helper (paused by default) */
    @keyframes spin { from { transform: rotate(0deg); } to { transform: rotate(360deg); } }
    .spin-run { animation: spin 2.8s linear infinite; transform-origin: center; }

    /* Optional glitch stripes (toggle opacity in code) */
    .glitch { fill: var(--text); opacity:0; }
  
    @keyframes coinspin {
      0%   { transform: rotate(0deg)   scaleX(1);   }
      25%  { transform: rotate(90deg)  scaleX(0.25);}
      50%  { transform: rotate(180deg) scaleX(1);   }
      75%  { transform: rotate(270deg) scaleX(0.25);}
      100% { transform: rotate(360deg) scaleX(1);   }
    }
    .coin-run { animation: coinspin 3.2s linear infinite; transform-origin: center; transform-box: fill-box; }

    .fx-scanlines rect { fill: url(#fx_scanlines); }
    .fx-glow { filter: url(#fx_glow); }
    .fx-vignette { fill: url(#fx_vignette); }
    .grid { opacity: .7 }
    .minor { opacity: .35 }
    .label.tiny { font-size: 24px; letter-spacing: 1.2px; }
    .anim-pulse { animation: pulse 2s ease-in-out infinite; }
    @keyframes pulse { 0%,100%{opacity:.6} 50%{opacity:1} }
]]></style>

  <pattern id="scanlines" width="4" height="4" patternUnits="userSpaceOnUse">
    <rect width="4" height="2" y="0" fill="#000"/><rect width="4" height="2" y="2" fill="transparent"/>
  </pattern>

  <!-- Clip regions -->
  <clipPath id="clip_center"><rect x="648" y="238" width="2504" height="1708" rx="12" ry="12"/></clipPath>
  <clipPath id="clip_left_col"><rect x="64" y="238" width="560" height="1708" rx="12" ry="12"/></clipPath>
  <clipPath id="clip_right_col"><rect x="3176" y="238" width="600" height="1708" rx="12" ry="12"/></clipPath>

  <!-- Weyland-Yutani mark (vector, generic) -->
  <symbol id="wy_mark" viewBox="0 0 200 120">
    <g class="ghost">
      <path d="M10 20 L50 100 H90 L130 20 H90 L70 60 L50 20 Z"/>
      <path d="M110 20 L150 100 H190 L150 20 Z"/>
    </g>
  </symbol>

  <clipPath id="clip_tabs_row"><rect x="64" y="64" width="3712" height="150" rx="12" ry="12"/></clipPath>

  <!-- Vectorised Weyland-Yutani logo (scanline mask) -->
  <mask id="wy_scan_mask">
    <rect x="0" y="0" width="2000" height="1200" fill="white"/>
    <!-- mask uses lines cut out? We'll simulate by drawing white rows; simpler keep as full white, lines will be drawn as strokes on top -->
  </mask>

  <symbol id="wy_logo" viewBox="0 0 2000 1200">
    <g id="wy_base" fill="none" stroke="var(--text)" stroke-width="20">
      <!-- Main W chevrons -->
      <path d="M80,280 L560,1000 L920,1000 L1280,280 L1080,280 L740,820 L420,280 Z"/>
      <path d="M1120,280 L1480,1000 L1920,1000 L1520,280 Z"/>
      <!-- Inner V / notch -->
      <path d="M840,560 L1000,760 L1160,560" />
      <!-- Top three triangles -->
      <path d="M560,240 L720,440 L400,440 Z"/>
      <path d="M920,240 L1080,440 L760,440 Z"/>
      <path d="M1280,240 L1440,440 L1120,440 Z"/>
    </g>
    <!-- Scanline stripes over the filled chevrons -->
    <g id="wy_stripes">
      <g stroke="var(--text)" stroke-width="10" opacity="0.75">
        <!-- Draw horizontal stripes -->
        <line x1="360" y1="500" x2="1680" y2="500"/>
        <line x1="360" y1="520" x2="1680" y2="520"/>
        <line x1="360" y1="540" x2="1680" y2="540"/>
        <line x1="360" y1="560" x2="1680" y2="560"/>
        <line x1="360" y1="580" x2="1680" y2="580"/>
        <line x1="360" y1="600" x2="1680" y2="600"/>
        <line x1="360" y1="620" x2="1680" y2="620"/>
        <line x1="360" y1="640" x2="1680" y2="640"/>
        <line x1="360" y1="660" x2="1680" y2="660"/>
        <line x1="360" y1="680" x2="1680" y2="680"/>
        <line x1="360" y1="700" x2="1680" y2="700"/>
        <line x1="360" y1="720" x2="1680" y2="720"/>
        <line x1="360" y1="740" x2="1680" y2="740"/>
        <line x1="360" y1="760" x2="1680" y2="760"/>
        <line x1="360" y1="780" x2="1680" y2="780"/>
        <line x1="360" y1="800" x2="1680" y2="800"/>
        <line x1="360" y1="820" x2="1680" y2="820"/>
        <line x1="360" y1="840" x2="1680" y2="840"/>
        <line x1="360" y1="860" x2="1680" y2="860"/>
        <line x1="360" y1="880" x2="1680" y2="880"/>
        <line x1="360" y1="900" x2="1680" y2="900"/>
        <line x1="360" y1="920" x2="1680" y2="920"/>
        <line x1="360" y1="940" x2="1680" y2="940"/>
        <line x1="360" y1="960" x2="1680" y2="960"/>
        <line x1="360" y1="980" x2="1680" y2="980"/>
        <line x1="360" y1="1000" x2="1680" y2="1000"/>
      </g>
    </g>
  </symbol>


  <!-- Effects -->
  <filter id="fx_glow" x="-20%" y="-20%" width="140%" height="140%">
    <feGaussianBlur in="SourceGraphic" stdDeviation="1.6" result="blur"/>
    <feMerge>
      <feMergeNode in="blur"/>
      <feMergeNode in="SourceGraphic"/>
    </feMerge>
  </filter>
  <pattern id="fx_scanlines" patternUnits="userSpaceOnUse" width="4" height="4">
    <rect width="4" height="1" y="0" fill="var(--text)" opacity="0.08"/>
  </pattern>
  <radialGradient id="fx_vignette" cx="50%" cy="50%" r="70%">
    <stop offset="70%" stop-color="black" stop-opacity="0"/>
    <stop offset="100%" stop-color="black" stop-opacity="0.4"/>
  </radialGradient>

</defs>

<rect x="0.0" y="0.0" width="3840.0" height="2160.0" rx="0" ry="0" class="bg" />
<rect x="36.0" y="36.0" width="3768.0" height="2088.0" rx="22" ry="22" class="dashframe" />
<rect x="56.0" y="56.0" width="3728.0" height="2048.0" rx="18" ry="18" class="frame" />
<g id="top_tabs">
<g id="hud_persistent_tabdate" clip-path="url(#clip_tabs_row)">
  <text id="tab_date_hud" x="3688" y="150" class="label tiny" text-anchor="end" opacity="0.85">28 APRIL 2149</text>
</g>

<rect x="64.0" y="64.0" width="1225.3" height="150.0" rx="18" ry="18" class="tab scanfill" id="tab_trajectory" />
<text x="92.0" y="151.0" class="label">TRAJECTORY</text>
<rect x="737.9" y="84.0" width="490.1" height="110.0" rx="8" ry="8" class="panel-fg" id="tab_trajectory_slot" />
<rect x="1307.3" y="64.0" width="1225.3" height="150.0" rx="18" ry="18" class="tab scanfill" id="tab_navigation" />
<text x="1335.3" y="151.0" class="label">NAVIGATION</text>
<rect x="1981.3" y="84.0" width="490.1" height="110.0" rx="8" ry="8" class="panel-fg" id="tab_navigation_slot" />
<rect x="2550.7" y="64.0" width="1225.3" height="150.0" rx="18" ry="18" class="tab scanfill" id="tab_location" />
<text x="2578.7" y="151.0" class="label">LOCATION</text>
<rect x="3224.6" y="84.0" width="490.1" height="110.0" rx="8" ry="8" class="panel-fg" id="tab_location_slot" />
</g>

<g id="tab_logo_spinner">
  <g id="wy_spin" class="coin-run">
    <use href="#wy_logo" x="0" y="0" width="420" height="120" />
  </g>
</g>

<rect x="64.0" y="238.0" width="560.0" height="1708.0" rx="14" ry="14" class="panel scanfill" id="left_column" />
<g id="hud_persistent" clip-path="url(#clip_left_col)">
  <!-- Persistent day/date shown in the top-left of the left column -->
  <text id="left_date_small" x="94" y="288" class="label tiny">28 APRIL 2149</text>
</g>

<rect x="648.0" y="238.0" width="2504.0" height="1708.0" rx="14" ry="14" class="panel scanfill" id="center_pane" />
<rect x="3176.0" y="238.0" width="600.0" height="1708.0" rx="14" ry="14" class="panel scanfill" id="right_column" />
<rect x="688" y="278" width="2424" height="1628" class="safe" id="safe_center"/>
<rect x="88" y="262" width="512" height="1660" class="safe" id="safe_left"/>
<rect x="3200" y="262" width="552" height="1660" class="safe" id="safe_right"/>
<rect x="654.0" y="310.0" width="2492.0" height="56.0" rx="8" ry="8" class="hdr scanfill" id="center_header_band" />
<text x="672.0" y="348.0" class="label" id="center_header_label">RADAR</text>
<text x="672.0" y="412.0" class="prompt" id="center_prompt">C:\&gt; _</text>
<rect x="70.0" y="244.0" width="548.0" height="391.9" rx="10" ry="10" class="panel-fg" id="left_trajectory_sim" />
<rect x="76.0" y="256.0" width="536.0" height="44.0" rx="6" ry="6" class="hdr scanfill" />
<text x="88.0" y="288.0" class="label small">TRAJECTORY SIM</text>
<rect x="92" y="324" width="504" height="281.91999999999996" class="accent" />
<rect x="70.0" y="653.9" width="548.0" height="357.8" rx="10" ry="10" class="panel-fg" id="left_journey_time" />
<rect x="76.0" y="665.9" width="536.0" height="44.0" rx="6" ry="6" class="hdr scanfill" />
<text x="88.0" y="697.9" class="label small">JOURNEY TIME</text>
<rect x="92" y="733.92" width="504" height="247.76" class="accent" />
<rect x="70.0" y="1029.7" width="548.0" height="391.9" rx="10" ry="10" class="panel-fg" id="left_star_properties" />
<rect x="76.0" y="1041.7" width="536.0" height="44.0" rx="6" ry="6" class="hdr scanfill" />
<text x="88.0" y="1073.7" class="label small">STAR PROPERTIES</text>
<rect x="92" y="1109.6799999999998" width="504" height="281.91999999999996" class="accent" />
<rect x="70.0" y="1439.6" width="548.0" height="494.4" rx="10" ry="10" class="panel-fg" id="left_stress_trajectories" />
<rect x="76.0" y="1451.6" width="536.0" height="44.0" rx="6" ry="6" class="hdr scanfill" />
<text x="88.0" y="1483.6" class="label small">STRESS TRAJECTORIES</text>
<rect x="92" y="1519.6" width="504" height="384.4" class="accent" />
<text x="94.0" y="288.0" class="label tiny" id="left_date_small">28 APRIL 2142</text>
<rect x="3182.0" y="244.0" width="588.0" height="221.1" rx="10" ry="10" class="panel-fg" id="right_alt_vyb_acc" />
<rect x="3188.0" y="256.0" width="576.0" height="44.0" rx="6" ry="6" class="hdr scanfill" />
<text x="3200.0" y="288.0" class="label small">ALT VYB ACC</text>
<rect x="3182.0" y="483.1" width="588.0" height="528.6" rx="10" ry="10" class="panel-fg" id="right_code_console" />
<rect x="3188.0" y="495.1" width="576.0" height="44.0" rx="6" ry="6" class="hdr scanfill" />
<text x="3200.0" y="527.1" class="label small">CODE CONSOLE</text>
<rect x="3182.0" y="1029.7" width="588.0" height="494.4" rx="10" ry="10" class="panel-fg" id="right_galactic_location" />
<rect x="3188.0" y="1041.7" width="576.0" height="44.0" rx="6" ry="6" class="hdr scanfill" />
<text x="3200.0" y="1073.7" class="label small">GALACTIC LOCATION</text>
<rect x="3182.0" y="1542.1" width="588.0" height="391.9" rx="10" ry="10" class="panel-fg" id="right_dial_metrics" />
<rect x="3188.0" y="1554.1" width="576.0" height="44.0" rx="6" ry="6" class="hdr scanfill" />
<text x="3200.0" y="1586.1" class="label small">DIAL METRICS</text>
<g id="center_guides">
<circle cx="1900.0" cy="1152.0" r="170.8" class="ghost"/>
<circle cx="1900.0" cy="1152.0" r="341.6" class="ghost"/>
<circle cx="1900.0" cy="1152.0" r="512.4" class="ghost"/>
<circle cx="1900.0" cy="1152.0" r="683.2" class="ghost"/>
<line x1="1216.8" y1="1152.0" x2="2583.2" y2="1152.0" class="ghost"/>
<line x1="1900.0" y1="468.79999999999995" x2="1900.0" y2="1835.2" class="ghost"/>
<line x1="2563.2" y1="1152.0" x2="2583.2" y2="1152.0" class="tick"/>
<line x1="2540.6" y1="1323.6" x2="2559.9" y2="1328.8" class="tick"/>
<line x1="2474.3" y1="1483.6" x2="2491.7" y2="1493.6" class="tick"/>
<line x1="2369.0" y1="1621.0" x2="2383.1" y2="1635.1" class="tick"/>
<line x1="2231.6" y1="1726.3" x2="2241.6" y2="1743.7" class="tick"/>
<line x1="2071.6" y1="1792.6" x2="2076.8" y2="1811.9" class="tick"/>
<line x1="1900.0" y1="1815.2" x2="1900.0" y2="1835.2" class="tick"/>
<line x1="1728.4" y1="1792.6" x2="1723.2" y2="1811.9" class="tick"/>
<line x1="1568.4" y1="1726.3" x2="1558.4" y2="1743.7" class="tick"/>
<line x1="1431.0" y1="1621.0" x2="1416.9" y2="1635.1" class="tick"/>
<line x1="1325.7" y1="1483.6" x2="1308.3" y2="1493.6" class="tick"/>
<line x1="1259.4" y1="1323.6" x2="1240.1" y2="1328.8" class="tick"/>
<line x1="1236.8" y1="1152.0" x2="1216.8" y2="1152.0" class="tick"/>
<line x1="1259.4" y1="980.4" x2="1240.1" y2="975.2" class="tick"/>
<line x1="1325.7" y1="820.4" x2="1308.3" y2="810.4" class="tick"/>
<line x1="1431.0" y1="683.0" x2="1416.9" y2="668.9" class="tick"/>
<line x1="1568.4" y1="577.7" x2="1558.4" y2="560.3" class="tick"/>
<line x1="1728.4" y1="511.4" x2="1723.2" y2="492.1" class="tick"/>
<line x1="1900.0" y1="488.8" x2="1900.0" y2="468.8" class="tick"/>
<line x1="2071.6" y1="511.4" x2="2076.8" y2="492.1" class="tick"/>
<line x1="2231.6" y1="577.7" x2="2241.6" y2="560.3" class="tick"/>
<line x1="2369.0" y1="683.0" x2="2383.1" y2="668.9" class="tick"/>
<line x1="2474.3" y1="820.4" x2="2491.7" y2="810.4" class="tick"/>
<line x1="2540.6" y1="980.4" x2="2559.9" y2="975.2" class="tick"/>
</g>
<g id="boot_text" text-anchor="middle">
<text x="1900.0" y="398.0" class="label" id="boot_date">28 APRIL 2142</text>
<text x="1900.0" y="498.0" class="prompt" id="boot_title">MU/TH/UR 9001</text>
<text x="1900.0" y="598.0" class="prompt" id="boot_status">WAKING UP...</text>
</g>
<g id="geo_overlay" class="accent">
<line x1="1968.3" y1="1015.4" x2="1695.0" y2="1083.7" />
<rect x="1958.3" y="1005.4" width="20" height="20" rx="4" ry="4"/>
<line x1="1695.0" y1="1083.7" x2="1831.7" y2="1322.8" />
<rect x="1685.0" y="1073.7" width="20" height="20" rx="4" ry="4"/>
<line x1="1831.7" y1="1322.8" x2="2070.8" y2="1186.2" />
<rect x="1821.7" y="1312.8" width="20" height="20" rx="4" ry="4"/>
<line x1="2070.8" y1="1186.2" x2="1934.2" y2="912.9" />
<rect x="2060.8" y="1176.2" width="20" height="20" rx="4" ry="4"/>
<line x1="1934.2" y1="912.9" x2="1968.3" y2="1015.4" />
<rect x="1924.2" y="902.9" width="20" height="20" rx="4" ry="4"/>
</g>
<g id="glitch_overlay" clip-path="url(#clip_center)">
<rect x="648" y="338" width="2504" height="8" class="glitch" id="gl_0"/>
<rect x="648" y="388" width="2504" height="8" class="glitch" id="gl_1"/>
<rect x="648" y="438" width="2504" height="8" class="glitch" id="gl_2"/>
<rect x="648" y="488" width="2504" height="8" class="glitch" id="gl_3"/>
<rect x="648" y="538" width="2504" height="8" class="glitch" id="gl_4"/>
<rect x="648" y="588" width="2504" height="8" class="glitch" id="gl_5"/>
<rect x="648" y="638" width="2504" height="8" class="glitch" id="gl_6"/>
<rect x="648" y="688" width="2504" height="8" class="glitch" id="gl_7"/>
<rect x="648" y="738" width="2504" height="8" class="glitch" id="gl_8"/>
<rect x="648" y="788" width="2504" height="8" class="glitch" id="gl_9"/>
<rect x="648" y="838" width="2504" height="8" class="glitch" id="gl_10"/>
<rect x="648" y="888" width="2504" height="8" class="glitch" id="gl_11"/>
<rect x="648" y="938" width="2504" height="8" class="glitch" id="gl_12"/>
<rect x="648" y="988" width="2504" height="8" class="glitch" id="gl_13"/>
<rect x="648" y="1038" width="2504" height="8" class="glitch" id="gl_14"/>
<rect x="648" y="1088" width="2504" height="8" class="glitch" id="gl_15"/>
<rect x="648" y="1138" width="2504" height="8" class="glitch" id="gl_16"/>
<rect x="648" y="1188" width="2504" height="8" class="glitch" id="gl_17"/>
</g>
<rect x="64.0" y="1946.0" width="3712.0" height="150.0" rx="12" ry="12" class="panel scanfill" id="bottom_strip" />
<line x1="648" y1="1936" x2="3152" y2="1936" class="tick"/>
<line x1="648" y1="1936" x2="648" y2="1954" class="tick"/>
<line x1="668" y1="1936" x2="668" y2="1946" class="tick"/>
<line x1="688" y1="1936" x2="688" y2="1946" class="tick"/>
<line x1="708" y1="1936" x2="708" y2="1946" class="tick"/>
<line x1="728" y1="1936" x2="728" y2="1946" class="tick"/>
<line x1="748" y1="1936" x2="748" y2="1954" class="tick"/>
<line x1="768" y1="1936" x2="768" y2="1946" class="tick"/>
<line x1="788" y1="1936" x2="788" y2="1946" class="tick"/>
<line x1="808" y1="1936" x2="808" y2="1946" class="tick"/>
<line x1="828" y1="1936" x2="828" y2="1946" class="tick"/>
<line x1="848" y1="1936" x2="848" y2="1954" class="tick"/>
<line x1="868" y1="1936" x2="868" y2="1946" class="tick"/>
<line x1="888" y1="1936" x2="888" y2="1946" class="tick"/>
<line x1="908" y1="1936" x2="908" y2="1946" class="tick"/>
<line x1="928" y1="1936" x2="928" y2="1946" class="tick"/>
<line x1="948" y1="1936" x2="948" y2="1954" class="tick"/>
<line x1="968" y1="1936" x2="968" y2="1946" class="tick"/>
<line x1="988" y1="1936" x2="988" y2="1946" class="tick"/>
<line x1="1008" y1="1936" x2="1008" y2="1946" class="tick"/>
<line x1="1028" y1="1936" x2="1028" y2="1946" class="tick"/>
<line x1="1048" y1="1936" x2="1048" y2="1954" class="tick"/>
<line x1="1068" y1="1936" x2="1068" y2="1946" class="tick"/>
<line x1="1088" y1="1936" x2="1088" y2="1946" class="tick"/>
<line x1="1108" y1="1936" x2="1108" y2="1946" class="tick"/>
<line x1="1128" y1="1936" x2="1128" y2="1946" class="tick"/>
<line x1="1148" y1="1936" x2="1148" y2="1954" class="tick"/>
<line x1="1168" y1="1936" x2="1168" y2="1946" class="tick"/>
<line x1="1188" y1="1936" x2="1188" y2="1946" class="tick"/>
<line x1="1208" y1="1936" x2="1208" y2="1946" class="tick"/>
<line x1="1228" y1="1936" x2="1228" y2="1946" class="tick"/>
<line x1="1248" y1="1936" x2="1248" y2="1954" class="tick"/>
<line x1="1268" y1="1936" x2="1268" y2="1946" class="tick"/>
<line x1="1288" y1="1936" x2="1288" y2="1946" class="tick"/>
<line x1="1308" y1="1936" x2="1308" y2="1946" class="tick"/>
<line x1="1328" y1="1936" x2="1328" y2="1946" class="tick"/>
<line x1="1348" y1="1936" x2="1348" y2="1954" class="tick"/>
<line x1="1368" y1="1936" x2="1368" y2="1946" class="tick"/>
<line x1="1388" y1="1936" x2="1388" y2="1946" class="tick"/>
<line x1="1408" y1="1936" x2="1408" y2="1946" class="tick"/>
<line x1="1428" y1="1936" x2="1428" y2="1946" class="tick"/>
<line x1="1448" y1="1936" x2="1448" y2="1954" class="tick"/>
<line x1="1468" y1="1936" x2="1468" y2="1946" class="tick"/>
<line x1="1488" y1="1936" x2="1488" y2="1946" class="tick"/>
<line x1="1508" y1="1936" x2="1508" y2="1946" class="tick"/>
<line x1="1528" y1="1936" x2="1528" y2="1946" class="tick"/>
<line x1="1548" y1="1936" x2="1548" y2="1954" class="tick"/>
<line x1="1568" y1="1936" x2="1568" y2="1946" class="tick"/>
<line x1="1588" y1="1936" x2="1588" y2="1946" class="tick"/>
<line x1="1608" y1="1936" x2="1608" y2="1946" class="tick"/>
<line x1="1628" y1="1936" x2="1628" y2="1946" class="tick"/>
<line x1="1648" y1="1936" x2="1648" y2="1954" class="tick"/>
<line x1="1668" y1="1936" x2="1668" y2="1946" class="tick"/>
<line x1="1688" y1="1936" x2="1688" y2="1946" class="tick"/>
<line x1="1708" y1="1936" x2="1708" y2="1946" class="tick"/>
<line x1="1728" y1="1936" x2="1728" y2="1946" class="tick"/>
<line x1="1748" y1="1936" x2="1748" y2="1954" class="tick"/>
<line x1="1768" y1="1936" x2="1768" y2="1946" class="tick"/>
<line x1="1788" y1="1936" x2="1788" y2="1946" class="tick"/>
<line x1="1808" y1="1936" x2="1808" y2="1946" class="tick"/>
<line x1="1828" y1="1936" x2="1828" y2="1946" class="tick"/>
<line x1="1848" y1="1936" x2="1848" y2="1954" class="tick"/>
<line x1="1868" y1="1936" x2="1868" y2="1946" class="tick"/>
<line x1="1888" y1="1936" x2="1888" y2="1946" class="tick"/>
<line x1="1908" y1="1936" x2="1908" y2="1946" class="tick"/>
<line x1="1928" y1="1936" x2="1928" y2="1946" class="tick"/>
<line x1="1948" y1="1936" x2="1948" y2="1954" class="tick"/>
<line x1="1968" y1="1936" x2="1968" y2="1946" class="tick"/>
<line x1="1988" y1="1936" x2="1988" y2="1946" class="tick"/>
<line x1="2008" y1="1936" x2="2008" y2="1946" class="tick"/>
<line x1="2028" y1="1936" x2="2028" y2="1946" class="tick"/>
<line x1="2048" y1="1936" x2="2048" y2="1954" class="tick"/>
<line x1="2068" y1="1936" x2="2068" y2="1946" class="tick"/>
<line x1="2088" y1="1936" x2="2088" y2="1946" class="tick"/>
<line x1="2108" y1="1936" x2="2108" y2="1946" class="tick"/>
<line x1="2128" y1="1936" x2="2128" y2="1946" class="tick"/>
<line x1="2148" y1="1936" x2="2148" y2="1954" class="tick"/>
<line x1="2168" y1="1936" x2="2168" y2="1946" class="tick"/>
<line x1="2188" y1="1936" x2="2188" y2="1946" class="tick"/>
<line x1="2208" y1="1936" x2="2208" y2="1946" class="tick"/>
<line x1="2228" y1="1936" x2="2228" y2="1946" class="tick"/>
<line x1="2248" y1="1936" x2="2248" y2="1954" class="tick"/>
<line x1="2268" y1="1936" x2="2268" y2="1946" class="tick"/>
<line x1="2288" y1="1936" x2="2288" y2="1946" class="tick"/>
<line x1="2308" y1="1936" x2="2308" y2="1946" class="tick"/>
<line x1="2328" y1="1936" x2="2328" y2="1946" class="tick"/>
<line x1="2348" y1="1936" x2="2348" y2="1954" class="tick"/>
<line x1="2368" y1="1936" x2="2368" y2="1946" class="tick"/>
<line x1="2388" y1="1936" x2="2388" y2="1946" class="tick"/>
<line x1="2408" y1="1936" x2="2408" y2="1946" class="tick"/>
<line x1="2428" y1="1936" x2="2428" y2="1946" class="tick"/>
<line x1="2448" y1="1936" x2="2448" y2="1954" class="tick"/>
<line x1="2468" y1="1936" x2="2468" y2="1946" class="tick"/>
<line x1="2488" y1="1936" x2="2488" y2="1946" class="tick"/>
<line x1="2508" y1="1936" x2="2508" y2="1946" class="tick"/>
<line x1="2528" y1="1936" x2="2528" y2="1946" class="tick"/>
<line x1="2548" y1="1936" x2="2548" y2="1954" class="tick"/>
<line x1="2568" y1="1936" x2="2568" y2="1946" class="tick"/>
<line x1="2588" y1="1936" x2="2588" y2="1946" class="tick"/>
<line x1="2608" y1="1936" x2="2608" y2="1946" class="tick"/>
<line x1="2628" y1="1936" x2="2628" y2="1946" class="tick"/>
<line x1="2648" y1="1936" x2="2648" y2="1954" class="tick"/>
<line x1="2668" y1="1936" x2="2668" y2="1946" class="tick"/>
<line x1="2688" y1="1936" x2="2688" y2="1946" class="tick"/>
<line x1="2708" y1="1936" x2="2708" y2="1946" class="tick"/>
<line x1="2728" y1="1936" x2="2728" y2="1946" class="tick"/>
<line x1="2748" y1="1936" x2="2748" y2="1954" class="tick"/>
<line x1="2768" y1="1936" x2="2768" y2="1946" class="tick"/>
<line x1="2788" y1="1936" x2="2788" y2="1946" class="tick"/>
<line x1="2808" y1="1936" x2="2808" y2="1946" class="tick"/>
<line x1="2828" y1="1936" x2="2828" y2="1946" class="tick"/>
<line x1="2848" y1="1936" x2="2848" y2="1954" class="tick"/>
<line x1="2868" y1="1936" x2="2868" y2="1946" class="tick"/>
<line x1="2888" y1="1936" x2="2888" y2="1946" class="tick"/>
<line x1="2908" y1="1936" x2="2908" y2="1946" class="tick"/>
<line x1="2928" y1="1936" x2="2928" y2="1946" class="tick"/>
<line x1="2948" y1="1936" x2="2948" y2="1954" class="tick"/>
<line x1="2968" y1="1936" x2="2968" y2="1946" class="tick"/>
<line x1="2988" y1="1936" x2="2988" y2="1946" class="tick"/>
<line x1="3008" y1="1936" x2="3008" y2="1946" class="tick"/>
<line x1="3028" y1="1936" x2="3028" y2="1946" class="tick"/>
<line x1="3048" y1="1936" x2="3048" y2="1954" class="tick"/>
<line x1="3068" y1="1936" x2="3068" y2="1946" class="tick"/>
<line x1="3088" y1="1936" x2="3088" y2="1946" class="tick"/>
<line x1="3108" y1="1936" x2="3108" y2="1946" class="tick"/>
<line x1="3128" y1="1936" x2="3128" y2="1946" class="tick"/>
<line x1="3148" y1="1936" x2="3148" y2="1954" class="tick"/>
<g id="bottom_widgets">
<rect x="88.0" y="2032.0" width="106.8" height="40.0" rx="4" ry="4" class="ghost" id="wdg_0"/>
<rect x="202.8" y="2032.0" width="106.8" height="40.0" rx="4" ry="4" class="ghost" id="wdg_1"/>
<rect x="317.5" y="2032.0" width="106.8" height="40.0" rx="4" ry="4" class="ghost" id="wdg_2"/>
<rect x="432.2" y="2032.0" width="106.8" height="40.0" rx="4" ry="4" class="ghost" id="wdg_3"/>
<rect x="547.0" y="2032.0" width="106.8" height="40.0" rx="4" ry="4" class="ghost" id="wdg_4"/>
<rect x="661.8" y="2032.0" width="106.8" height="40.0" rx="4" ry="4" class="ghost" id="wdg_5"/>
<rect x="776.5" y="2032.0" width="106.8" height="40.0" rx="4" ry="4" class="ghost" id="wdg_6"/>
<rect x="891.2" y="2032.0" width="106.8" height="40.0" rx="4" ry="4" class="ghost" id="wdg_7"/>
<rect x="1006.0" y="2032.0" width="106.8" height="40.0" rx="4" ry="4" class="ghost" id="wdg_8"/>
<rect x="1120.8" y="2032.0" width="106.8" height="40.0" rx="4" ry="4" class="ghost" id="wdg_9"/>
<rect x="1235.5" y="2032.0" width="106.8" height="40.0" rx="4" ry="4" class="ghost" id="wdg_10"/>
<rect x="1350.2" y="2032.0" width="106.8" height="40.0" rx="4" ry="4" class="ghost" id="wdg_11"/>
<rect x="1465.0" y="2032.0" width="106.8" height="40.0" rx="4" ry="4" class="ghost" id="wdg_12"/>
<rect x="1579.8" y="2032.0" width="106.8" height="40.0" rx="4" ry="4" class="ghost" id="wdg_13"/>
<rect x="1694.5" y="2032.0" width="106.8" height="40.0" rx="4" ry="4" class="ghost" id="wdg_14"/>
<rect x="1809.2" y="2032.0" width="106.8" height="40.0" rx="4" ry="4" class="ghost" id="wdg_15"/>
<rect x="1924.0" y="2032.0" width="106.8" height="40.0" rx="4" ry="4" class="ghost" id="wdg_16"/>
<rect x="2038.8" y="2032.0" width="106.8" height="40.0" rx="4" ry="4" class="ghost" id="wdg_17"/>
<rect x="2153.5" y="2032.0" width="106.8" height="40.0" rx="4" ry="4" class="ghost" id="wdg_18"/>
<rect x="2268.2" y="2032.0" width="106.8" height="40.0" rx="4" ry="4" class="ghost" id="wdg_19"/>
<rect x="2383.0" y="2032.0" width="106.8" height="40.0" rx="4" ry="4" class="ghost" id="wdg_20"/>
<rect x="2497.8" y="2032.0" width="106.8" height="40.0" rx="4" ry="4" class="ghost" id="wdg_21"/>
<rect x="2612.5" y="2032.0" width="106.8" height="40.0" rx="4" ry="4" class="ghost" id="wdg_22"/>
<rect x="2727.2" y="2032.0" width="106.8" height="40.0" rx="4" ry="4" class="ghost" id="wdg_23"/>
<rect x="2842.0" y="2032.0" width="106.8" height="40.0" rx="4" ry="4" class="ghost" id="wdg_24"/>
<rect x="2956.8" y="2032.0" width="106.8" height="40.0" rx="4" ry="4" class="ghost" id="wdg_25"/>
<rect x="3071.5" y="2032.0" width="106.8" height="40.0" rx="4" ry="4" class="ghost" id="wdg_26"/>
<rect x="3186.2" y="2032.0" width="106.8" height="40.0" rx="4" ry="4" class="ghost" id="wdg_27"/>
<rect x="3301.0" y="2032.0" width="106.8" height="40.0" rx="4" ry="4" class="ghost" id="wdg_28"/>
<rect x="3415.8" y="2032.0" width="106.8" height="40.0" rx="4" ry="4" class="ghost" id="wdg_29"/>
<rect x="3530.5" y="2032.0" width="106.8" height="40.0" rx="4" ry="4" class="ghost" id="wdg_30"/>
<rect x="3645.2" y="2032.0" width="106.8" height="40.0" rx="4" ry="4" class="ghost" id="wdg_31"/>
</g>
<metadata><title>Alien Covenant Master Template v1.2</title><desc>Screen-accurate layout with tab spinner slot, left date stamp, MU/TH/UR 9001 boot text, geometry overlay, glitch guides, scanlines, and full IDs/clipPaths.</desc></metadata>

<g id="effects_overlays" pointer-events="none">
  <!-- Global scanlines overlay -->
  <g class="fx-scanlines" opacity=".6">
    <rect x="0" y="0" width="3840" height="2160"/>
  </g>
  <!-- Vignette -->
  <rect class="fx-vignette" x="0" y="0" width="3840" height="2160" opacity=".55"/>
</g>

</svg>